<?xml version="1.0" encoding="utf-8"?>
<!-- Generator: Adobe Illustrator 15.0.0, SVG Export Plug-In . SVG Version: 6.00 Build 0)  -->
<!DOCTYPE svg PUBLIC "-//W3C//DTD SVG 1.1//EN" "http://www.w3.org/Graphics/SVG/1.1/DTD/svg11.dtd">
<svg version="1.1" id="Layer_1" xmlns="http://www.w3.org/2000/svg" xmlns:xlink="http://www.w3.org/1999/xlink" x="0px" y="0px"
	 width="841.89px" height="595.28px" viewBox="0 0 841.89 595.28" enable-background="new 0 0 841.89 595.28" xml:space="preserve">
<g>
	<path opacity="0.6" fill="#F57E20" stroke="#000000" stroke-linejoin="round" stroke-miterlimit="10" d="M-194.331,657.302
		l-54.578,83.178l-50.826-85.545l-0.004-0.006c32.125-19.087,73.213-18.819,105.412,2.367L-194.331,657.302z"/>
	<path fill="#F57E20" stroke="#000000" stroke-linejoin="round" stroke-miterlimit="10" d="M-248.909,740.479l-27.213,95.689
		l-0.007-0.001c8.678,2.472,17.839,3.795,27.31,3.795c54.943,0,99.484-44.541,99.484-99.484c0-34.815-17.885-65.455-44.968-83.231
		l-0.028,0.055L-248.909,740.479z"/>
	<path opacity="0.4" fill="#F57E20" stroke="#000000" stroke-linejoin="round" stroke-miterlimit="10" d="M-248.912,740.479
		l-50.83-85.551l0.026,0.052c-14.591,8.704-26.767,21.038-35.28,35.755l0.002,0.001L-248.912,740.479z"/>
	<path opacity="0.2" fill="#F57E20" stroke="#000000" stroke-linejoin="round" stroke-miterlimit="10" d="M-248.909,740.479
		l-43.042,89.716l-0.003-0.001c5.05,2.428,10.336,4.441,15.815,5.997l0.01-0.023L-248.909,740.479z"/>
	<path opacity="0.8" fill="#F57E20" stroke="#000000" stroke-linejoin="round" stroke-miterlimit="10" d="M-291.951,830.195
		l43.039-89.716l-86.084-49.744l-0.062-0.043c-8.481,14.644-13.336,31.648-13.336,49.787c0,39.524,23.049,73.665,56.439,89.715
		L-291.951,830.195z"/>
</g>
<path fill="#FFFFFF" stroke="#000000" stroke-linejoin="round" stroke-miterlimit="10" d="M1020.985,16.584l-54.578,83.178
	l-50.826-85.545l-0.004-0.006c32.125-19.087,73.213-18.82,105.412,2.367L1020.985,16.584z"/>
<path fill="#FFFFFF" stroke="#000000" stroke-linejoin="round" stroke-miterlimit="10" d="M966.407,99.762l-27.213,95.689
	l-0.007-0.001c8.678,2.472,17.839,3.795,27.31,3.795c54.943,0,99.484-44.541,99.484-99.484c0-34.815-17.885-65.455-44.968-83.231
	l-0.028,0.055L966.407,99.762z"/>
<path fill="#FFFFFF" stroke="#000000" stroke-linejoin="round" stroke-miterlimit="10" d="M966.404,99.762l-50.83-85.551
	l0.026,0.052c-14.591,8.704-26.767,21.038-35.28,35.755l0.002,0.001L966.404,99.762z"/>
<path fill="#FFFFFF" stroke="#000000" stroke-linejoin="round" stroke-miterlimit="10" d="M966.407,99.762l-43.042,89.716
	l-0.003-0.001c5.05,2.428,10.336,4.441,15.815,5.997l0.01-0.023L966.407,99.762z"/>
<path fill="#FFFFFF" stroke="#000000" stroke-linejoin="round" stroke-miterlimit="10" d="M923.365,189.478l43.039-89.716
	L880.32,50.018l-0.062-0.043c-8.481,14.644-13.336,31.648-13.336,49.787c0,39.524,23.049,73.665,56.439,89.715L923.365,189.478z"/>
<path fill="#FFFFFF" stroke="#000000" stroke-linejoin="round" stroke-miterlimit="10" d="M1267.609,24.71l-54.578,83.178
	l-50.826-85.545l-0.004-0.006c32.125-19.087,73.213-18.82,105.412,2.367L1267.609,24.71z"/>
<path fill="#FFFFFF" stroke="#000000" stroke-linejoin="round" stroke-miterlimit="10" d="M1213.031,107.888l-27.213,95.689
	l-0.007-0.001c8.678,2.472,17.839,3.795,27.31,3.795c54.943,0,99.484-44.541,99.484-99.484c0-34.815-17.885-65.455-44.968-83.231
	l-0.028,0.055L1213.031,107.888z"/>
<path fill="#FFFFFF" stroke="#000000" stroke-linejoin="round" stroke-miterlimit="10" d="M1213.028,107.888l-50.83-85.551
	l0.026,0.052c-14.591,8.704-26.767,21.038-35.28,35.755l0.002,0.001L1213.028,107.888z"/>
<path fill="#FFFFFF" stroke="#000000" stroke-linejoin="round" stroke-miterlimit="10" d="M1213.031,107.888l-43.042,89.716
	l-0.003-0.001c5.05,2.428,10.336,4.441,15.815,5.997l0.01-0.023L1213.031,107.888z"/>
<path fill="#FFFFFF" stroke="#000000" stroke-linejoin="round" stroke-miterlimit="10" d="M1169.989,197.604l43.039-89.716
	l-86.084-49.744l-0.062-0.043c-8.48,14.644-13.336,31.648-13.336,49.787c0,39.524,23.049,73.665,56.439,89.715L1169.989,197.604z"/>
<path fill="#FFFFFF" stroke="#000000" stroke-linejoin="round" stroke-miterlimit="10" d="M1034.383,280.237l-54.578,83.178
	l-50.826-85.545l-0.004-0.006c32.125-19.088,73.213-18.82,105.412,2.367L1034.383,280.237z"/>
<path fill="#FFFFFF" stroke="#000000" stroke-linejoin="round" stroke-miterlimit="10" d="M979.805,363.415l-27.213,95.689
	l-0.007-0.001c8.678,2.472,17.839,3.795,27.31,3.795c54.943,0,99.484-44.541,99.484-99.484c0-34.815-17.885-65.455-44.968-83.231
	l-0.028,0.055L979.805,363.415z"/>
<path fill="#FFFFFF" stroke="#000000" stroke-linejoin="round" stroke-miterlimit="10" d="M979.802,363.415l-50.83-85.551
	l0.026,0.052c-14.591,8.704-26.767,21.038-35.28,35.755l0.002,0.001L979.802,363.415z"/>
<path fill="#FFFFFF" stroke="#000000" stroke-linejoin="round" stroke-miterlimit="10" d="M979.805,363.415l-43.042,89.716
	l-0.003-0.001c5.05,2.428,10.336,4.441,15.815,5.997l0.01-0.023L979.805,363.415z"/>
<path fill="#FFFFFF" stroke="#000000" stroke-linejoin="round" stroke-miterlimit="10" d="M936.763,453.131l43.039-89.716
	l-86.084-49.744l-0.062-0.043c-8.48,14.644-13.336,31.648-13.336,49.787c0,39.524,23.049,73.665,56.439,89.715L936.763,453.131z"/>
<g>
	<path opacity="0.6" fill="#F57E20" d="M41.624,657.302l-54.578,83.178l-50.826-85.545l-0.004-0.006
		c32.125-19.087,73.213-18.819,105.412,2.367L41.624,657.302z"/>
	<path fill="#F57E20" d="M-12.954,740.479l-27.213,95.689l-0.007-0.001c8.678,2.472,17.839,3.795,27.31,3.795
		c54.943,0,99.484-44.541,99.484-99.484c0-34.815-17.885-65.455-44.968-83.231l-0.028,0.055L-12.954,740.479z"/>
	<path opacity="0.4" fill="#F57E20" d="M-12.957,740.479l-50.83-85.551l0.026,0.052c-14.591,8.704-26.767,21.038-35.28,35.755
		l0.002,0.001L-12.957,740.479z"/>
	<path opacity="0.2" fill="#F57E20" d="M-12.954,740.479l-43.042,89.716l-0.003-0.001c5.05,2.428,10.336,4.441,15.815,5.997
		l0.01-0.023L-12.954,740.479z"/>
	<path opacity="0.8" fill="#F57E20" d="M-55.996,830.195l43.039-89.716l-86.084-49.744l-0.062-0.043
		c-8.481,14.644-13.336,31.648-13.336,49.787c0,39.524,23.049,73.665,56.439,89.715L-55.996,830.195z"/>
</g>
<g>
	<path fill="#F57E20" d="M263.659,657.302l-54.578,83.178l-50.826-85.545l-0.004-0.006c32.125-19.087,73.213-18.819,105.412,2.367
		L263.659,657.302z"/>
	<path opacity="0.8" fill="#F57E20" d="M209.081,740.479l-27.213,95.689l-0.007-0.001c8.678,2.472,17.839,3.795,27.31,3.795
		c54.943,0,99.484-44.541,99.484-99.484c0-34.815-17.885-65.455-44.968-83.231l-0.028,0.055L209.081,740.479z"/>
	<path opacity="0.2" fill="#F57E20" d="M209.078,740.479l-50.83-85.551l0.026,0.052c-14.591,8.704-26.767,21.038-35.28,35.755
		l0.002,0.001L209.078,740.479z"/>
	<path opacity="0.6" fill="#F57E20" d="M209.081,740.479l-43.042,89.716l-0.003-0.001c5.05,2.428,10.336,4.441,15.815,5.997
		l0.01-0.023L209.081,740.479z"/>
	<path opacity="0.4" fill="#F57E20" d="M166.039,830.195l43.039-89.716l-86.084-49.744l-0.062-0.043
		c-8.481,14.644-13.336,31.648-13.336,49.787c0,39.524,23.049,73.665,56.439,89.715L166.039,830.195z"/>
</g>
<path fill="#F57E20" d="M-200.285,895.39l-43.662,66.542l-40.662-68.437l-0.002-0.004c25.699-15.27,58.57-15.056,84.329,1.894
	L-200.285,895.39z"/>
<path opacity="0.8" fill="#F57E20" d="M-229.947,976.932l-21.771,76.552l-0.005-0.001c6.942,1.978,14.271,3.036,21.848,3.036
	c43.954,0,79.587-35.633,79.587-79.588c0-27.852-14.307-52.363-35.974-66.585l-0.022,0.044L-229.947,976.932z"/>
<path opacity="0.2" fill="#F57E20" d="M-260.95,967.932l-40.664-68.44l0.021,0.041c-11.672,6.963-21.412,16.83-28.224,28.604
	l0.001,0.002L-260.95,967.932z"/>
<path opacity="0.6" fill="#F57E20" d="M-247.947,985.932l-34.434,71.772h-0.003c4.04,1.941,8.269,3.553,12.652,4.797l0.008-0.019
	L-247.947,985.932z"/>
<path opacity="0.4" fill="#F57E20" d="M-302.381,1050.704l34.431-71.772l-68.867-39.796l-0.05-0.033
	c-6.785,11.715-10.668,25.318-10.668,39.829c0,31.62,18.439,58.933,45.151,71.772H-302.381z"/>
<rect x="-476" y="640.993" fill="none" width="93" height="79.473"/>
<text transform="matrix(1 0 0 1 -476 649.5137)"><tspan x="0" y="0" font-family="'MyriadPro-Regular'" font-size="12">We paid</tspan><tspan x="0" y="14.399" font-family="'MyriadPro-Regular'" font-size="12">We keep</tspan><tspan x="0" y="28.799" font-family="'MyriadPro-Regular'" font-size="12">We donate</tspan><tspan x="0" y="43.199" font-family="'MyriadPro-Regular'" font-size="12">We re-invest</tspan><tspan x="0" y="57.6" font-family="'MyriadPro-Regular'" font-size="12">We pay staff</tspan></text>
<g>
	<path opacity="0.8" fill="#F57E20" d="M508.558,657.302l-54.578,83.178l-50.826-85.545l-0.004-0.006
		c32.125-19.087,73.213-18.819,105.412,2.367L508.558,657.302z"/>
	<path opacity="0.6" fill="#F57E20" d="M453.979,740.479l-27.213,95.689l-0.007-0.001c8.678,2.472,17.839,3.795,27.31,3.795
		c54.943,0,99.484-44.541,99.484-99.484c0-34.815-17.885-65.455-44.968-83.231l-0.028,0.055L453.979,740.479z"/>
	<path fill="#F57E20" d="M453.977,740.479l-50.83-85.551l0.026,0.052c-14.591,8.704-26.767,21.038-35.28,35.755l0.002,0.001
		L453.977,740.479z"/>
	<path opacity="0.4" fill="#F57E20" d="M453.979,740.479l-43.042,89.716l-0.003-0.001c5.05,2.428,10.336,4.441,15.815,5.997
		l0.01-0.023L453.979,740.479z"/>
	<path opacity="0.2" fill="#F57E20" d="M410.938,830.195l43.039-89.716l-86.084-49.744l-0.062-0.043
		c-8.481,14.644-13.336,31.648-13.336,49.787c0,39.524,23.049,73.665,56.439,89.715L410.938,830.195z"/>
	<line fill="none" x1="407.932" y1="657.247" x2="456.982" y2="744.394"/>
	<text transform="matrix(0.4905 0.8714 -0.8714 0.4905 408.8984 658.9688)"><tspan x="0" y="0" font-family="'MyriadPro-Regular'" font-size="9">w</tspan><tspan x="6.638" y="-0.001" font-family="'MyriadPro-Regular'" font-size="9" rotate="0">e</tspan><tspan x="11.133" y="0" font-family="'MyriadPro-Regular'" font-size="9"> </tspan><tspan x="13.049" y="-0.001" font-family="'MyriadPro-Regular'" font-size="9" rotate="0.001">P</tspan><tspan x="17.838" y="0" font-family="'MyriadPro-Regular'" font-size="9">A</tspan><tspan x="23.354" y="-0.001" font-family="'MyriadPro-Regular'" font-size="9">I</tspan><tspan x="25.507" y="-0.001" font-family="'MyriadPro-Regular'" font-size="9">D</tspan></text>
	<line fill="none" x1="373.827" y1="690.692" x2="460.069" y2="741.316"/>
	<text transform="matrix(0.8624 0.5062 -0.5062 0.8624 375.5317 691.6934)"><tspan x="0" y="0" font-family="'MyriadPro-Regular'" font-size="9">w</tspan><tspan x="6.637" y="-0.001" font-family="'MyriadPro-Regular'" font-size="9" rotate="0">e</tspan><tspan x="11.132" y="0" font-family="'MyriadPro-Regular'" font-size="9"> </tspan><tspan x="13.061" y="0" font-family="'MyriadPro-Regular'" font-size="9">K</tspan><tspan x="17.941" y="0" font-family="'MyriadPro-Regular'" font-size="9">E</tspan><tspan x="22.346" y="-0.001" font-family="'MyriadPro-Regular'" font-size="9" rotate="0">E</tspan><tspan x="26.791" y="0" font-family="'MyriadPro-Regular'" font-size="9">P</tspan></text>
	<line fill="none" x1="410.59" y1="826.354" x2="454.324" y2="736.422"/>
	<text transform="matrix(0.4373 -0.8993 0.8993 0.4373 411.4541 824.5762)"><tspan x="0" y="0" font-family="'MyriadPro-Regular'" font-size="9">w</tspan><tspan x="6.637" y="0" font-family="'MyriadPro-Regular'" font-size="9" rotate="-0.001">e</tspan><tspan x="11.133" y="-0.001" font-family="'MyriadPro-Regular'" font-size="9" rotate="-0.001"> </tspan><tspan x="13.048" y="0" font-family="'MyriadPro-Regular'" font-size="9">D</tspan><tspan x="19.035" y="0" font-family="'MyriadPro-Regular'" font-size="9">O</tspan><tspan x="25.237" y="0" font-family="'MyriadPro-Regular'" font-size="9">N</tspan><tspan x="31.179" y="0" font-family="'MyriadPro-Regular'" font-size="9" rotate="0">A</tspan><tspan x="36.678" y="0" font-family="'MyriadPro-Regular'" font-size="9" rotate="-0.001">T</tspan><tspan x="41.167" y="0" font-family="'MyriadPro-Regular'" font-size="9">E</tspan></text>
	<line fill="none" x1="425.544" y1="832.297" x2="453.979" y2="736.422"/>
	<text transform="matrix(0.2844 -0.9587 0.9587 0.2844 426.1064 830.4023)"><tspan x="0" y="0" font-family="'MyriadPro-Regular'" font-size="9">w</tspan><tspan x="6.637" y="-0.001" font-family="'MyriadPro-Regular'" font-size="9" rotate="-0.001">e</tspan><tspan x="11.131" y="0" font-family="'MyriadPro-Regular'" font-size="9" rotate="-0.001"> </tspan><tspan x="13.05" y="-0.001" font-family="'MyriadPro-Regular'" font-size="9" rotate="-0.001">R</tspan><tspan x="17.879" y="0" font-family="'MyriadPro-Regular'" font-size="9" rotate="-0.001">E</tspan><tspan x="22.33" y="-0.001" font-family="'MyriadPro-Regular'" font-size="9" rotate="-0.001">-</tspan><tspan x="25.104" y="-0.001" font-family="'MyriadPro-Regular'" font-size="9" rotate="-0.001">I</tspan><tspan x="27.254" y="-0.002" font-family="'MyriadPro-Regular'" font-size="9" rotate="-0.001">N</tspan><tspan x="33.177" y="0" font-family="'MyriadPro-Regular'" font-size="9" rotate="-0.001">V</tspan><tspan x="38.184" y="0" font-family="'MyriadPro-Regular'" font-size="9" rotate="-0.001">E</tspan><tspan x="42.62" y="-0.001" font-family="'MyriadPro-Regular'" font-size="9" rotate="-0.001">S</tspan><tspan x="47.07" y="-0.001" font-family="'MyriadPro-Regular'" font-size="9" rotate="-0.001">T</tspan></text>
	<line fill="none" x1="508.062" y1="662.516" x2="453.977" y2="746.63"/>
	<text transform="matrix(-0.5409 0.8411 -0.8411 -0.5409 506.9941 664.1777)"><tspan x="0" y="0" font-family="'MyriadPro-Regular'" font-size="9">w</tspan><tspan x="6.637" y="0" font-family="'MyriadPro-Regular'" font-size="9" rotate="-0.001">e</tspan><tspan x="11.131" y="0" font-family="'MyriadPro-Regular'" font-size="9" rotate="0"> </tspan><tspan x="13.048" y="0.001" font-family="'MyriadPro-Regular'" font-size="9" rotate="-0.001">P</tspan><tspan x="17.837" y="-0.001" font-family="'MyriadPro-Regular'" font-size="9" rotate="-0.001">A</tspan><tspan x="23.344" y="0" font-family="'MyriadPro-Regular'" font-size="9" rotate="-0.001">Y</tspan><tspan x="28.23" y="0" font-family="'MyriadPro-Regular'" font-size="9" rotate="-0.001"> </tspan><tspan x="30.131" y="0" font-family="'MyriadPro-Regular'" font-size="9" rotate="-0.001">S</tspan><tspan x="34.556" y="-0.001" font-family="'MyriadPro-Regular'" font-size="9" rotate="-0.001">T</tspan><tspan x="39.059" y="-0.001" font-family="'MyriadPro-Regular'" font-size="9" rotate="-0.001">A</tspan><tspan x="44.55" y="0" font-family="'MyriadPro-Regular'" font-size="9" rotate="-0.001">F</tspan><tspan x="48.943" y="0.001" font-family="'MyriadPro-Regular'" font-size="9" rotate="-0.001">F</tspan></text>
</g>
<g>
	<path opacity="0.8" fill="#F57E20" d="M758.164,657.302l-54.578,83.178l-50.826-85.545l-0.004-0.006
		c32.125-19.087,73.213-18.819,105.412,2.367L758.164,657.302z"/>
	<path opacity="0.6" fill="#F57E20" d="M703.586,740.479l-27.213,95.689l-0.007-0.001c8.678,2.472,17.839,3.795,27.31,3.795
		c54.943,0,99.484-44.541,99.484-99.484c0-34.815-17.885-65.455-44.968-83.231l-0.028,0.055L703.586,740.479z"/>
	<path fill="#F57E20" d="M703.583,740.479l-50.83-85.551l0.026,0.052c-14.591,8.704-26.767,21.038-35.28,35.755l0.002,0.001
		L703.583,740.479z"/>
	<path opacity="0.4" fill="#F57E20" d="M703.586,740.479l-43.042,89.716l-0.003-0.001c5.05,2.428,10.336,4.441,15.815,5.997
		l0.01-0.023L703.586,740.479z"/>
	<path opacity="0.2" fill="#F57E20" d="M660.544,830.195l43.039-89.716l-86.084-49.744l-0.062-0.043
		c-8.481,14.644-13.336,31.648-13.336,49.787c0,39.524,23.049,73.665,56.439,89.715L660.544,830.195z"/>
	<rect x="689.701" y="728.779" fill="none" width="44.299" height="28.789"/>
	<text transform="matrix(1 0 0 1 689.7012 743.6895)" fill="#2B3990" font-family="'MyriadPro-Regular'" font-size="21">we</text>
	<line fill="none" x1="657.538" y1="657.247" x2="706.589" y2="744.394"/>
	<text transform="matrix(0.4905 0.8714 -0.8714 0.4905 658.502 658.9609)"><tspan x="0" y="0" font-family="'MyriadPro-Regular'" font-size="9">P</tspan><tspan x="4.798" y="0" font-family="'MyriadPro-Regular'" font-size="9">A</tspan><tspan x="10.314" y="0" font-family="'MyriadPro-Regular'" font-size="9" rotate="-0.001">I</tspan><tspan x="12.454" y="0.001" font-family="'MyriadPro-Regular'" font-size="9">D</tspan></text>
	<line fill="none" x1="622.767" y1="690.692" x2="709.009" y2="741.316"/>
	<text transform="matrix(0.8624 0.5062 -0.5062 0.8624 624.4805 691.6982)"><tspan x="0" y="0" font-family="'MyriadPro-Regular'" font-size="9">K</tspan><tspan x="4.871" y="0" font-family="'MyriadPro-Regular'" font-size="9">E</tspan><tspan x="9.312" y="0" font-family="'MyriadPro-Regular'" font-size="9" rotate="-0.001">E</tspan><tspan x="13.729" y="0" font-family="'MyriadPro-Regular'" font-size="9" rotate="-0.001">P</tspan></text>
	<line fill="none" x1="660.196" y1="824.897" x2="703.931" y2="734.966"/>
	<text transform="matrix(0.4374 -0.8993 0.8993 0.4374 661.0537 823.1328)"><tspan x="0" y="0" font-family="'MyriadPro-Regular'" font-size="9">D</tspan><tspan x="6.022" y="0" font-family="'MyriadPro-Regular'" font-size="9" rotate="-0.001">O</tspan><tspan x="12.21" y="0.001" font-family="'MyriadPro-Regular'" font-size="9" rotate="-0.002">N</tspan><tspan x="18.132" y="-0.001" font-family="'MyriadPro-Regular'" font-size="9" rotate="-0.001">A</tspan><tspan x="23.658" y="0" font-family="'MyriadPro-Regular'" font-size="9" rotate="-0.002">T</tspan><tspan x="28.119" y="0" font-family="'MyriadPro-Regular'" font-size="9" rotate="-0.001">E</tspan></text>
	<line fill="none" x1="675.147" y1="832.297" x2="703.583" y2="736.422"/>
	<text transform="matrix(0.2843 -0.9587 0.9587 0.2843 675.709 830.4062)"><tspan x="0" y="0" font-family="'MyriadPro-Regular'" font-size="9">R</tspan><tspan x="4.865" y="0" font-family="'MyriadPro-Regular'" font-size="9" rotate="0">E</tspan><tspan x="9.285" y="0" font-family="'MyriadPro-Regular'" font-size="9" rotate="0.001">-</tspan><tspan x="12.03" y="0" font-family="'MyriadPro-Regular'" font-size="9" rotate="0">I</tspan><tspan x="14.199" y="0" font-family="'MyriadPro-Regular'" font-size="9" rotate="0.001">N</tspan><tspan x="20.107" y="0" font-family="'MyriadPro-Regular'" font-size="9">V</tspan><tspan x="25.141" y="0" font-family="'MyriadPro-Regular'" font-size="9" rotate="0.001">E</tspan><tspan x="29.576" y="0" font-family="'MyriadPro-Regular'" font-size="9" rotate="0.001">S</tspan><tspan x="34.026" y="0" font-family="'MyriadPro-Regular'" font-size="9">T</tspan></text>
	<line fill="none" x1="759.762" y1="660.416" x2="705.462" y2="744.394"/>
	<text transform="matrix(-0.543 0.8397 -0.8397 -0.543 758.6963 662.0684)"><tspan x="0" y="0" font-family="'MyriadPro-Regular'" font-size="9">P</tspan><tspan x="4.799" y="0.001" font-family="'MyriadPro-Regular'" font-size="9" rotate="-0.001">A</tspan><tspan x="10.299" y="0.001" font-family="'MyriadPro-Regular'" font-size="9" rotate="-0.001">Y</tspan><tspan x="15.188" y="0" font-family="'MyriadPro-Regular'" font-size="9" rotate="-0.001"> </tspan><tspan x="17.084" y="0" font-family="'MyriadPro-Regular'" font-size="9" rotate="-0.001">S</tspan><tspan x="21.533" y="0" font-family="'MyriadPro-Regular'" font-size="9" rotate="-0.001">T</tspan><tspan x="25.997" y="0.001" font-family="'MyriadPro-Regular'" font-size="9" rotate="-0.001">A</tspan><tspan x="31.52" y="0" font-family="'MyriadPro-Regular'" font-size="9" rotate="-0.001">F</tspan><tspan x="35.904" y="0" font-family="'MyriadPro-Regular'" font-size="9" rotate="-0.001">F</tspan></text>
</g>
<path fill="#3D499F" d="M236.395,66.327l-54.578,83.178L130.99,63.96l-0.004-0.006c32.125-19.087,73.213-18.819,105.412,2.367
	L236.395,66.327z"/>
<path fill="#FBB98B" d="M181.816,149.505l-27.213,95.689l-0.007-0.001c8.678,2.472,17.839,3.795,27.31,3.795
	c54.943,0,99.484-44.541,99.484-99.484c0-34.815-17.885-65.455-44.968-83.231l-0.028,0.055L181.816,149.505z"/>
<path fill="#C41B7C" d="M181.813,149.505l-50.83-85.551l0.026,0.052c-14.591,8.704-26.767,21.038-35.28,35.755l0.002,0.001
	L181.813,149.505z"/>
<path fill="#7BAFA5" d="M181.816,149.505l-43.042,89.716l-0.003-0.001c5.05,2.428,10.336,4.441,15.815,5.997l0.01-0.023
	L181.816,149.505z"/>
<path fill="#DDA127" d="M138.774,239.221l43.039-89.716L95.729,99.761l-0.062-0.043c-8.481,14.644-13.336,31.648-13.336,49.787
	c0,39.524,23.049,73.665,56.439,89.715L138.774,239.221z"/>
<rect x="377.265" y="133.512" fill="none" width="44.299" height="28.789"/>
<text transform="matrix(1 0 0 1 377.2651 148.4219)" fill="#2B3990" font-family="'MyriadPro-Regular'" font-size="21">we</text>
<line fill="none" x1="345.102" y1="61.98" x2="394.153" y2="149.126"/>
<text transform="matrix(0.4905 0.8714 -0.8714 0.4905 346.0649 63.6938)"><tspan x="0" y="0" font-family="'MyriadPro-Regular'" font-size="9">P</tspan><tspan x="4.798" y="0" font-family="'MyriadPro-Regular'" font-size="9">A</tspan><tspan x="10.314" y="0" font-family="'MyriadPro-Regular'" font-size="9" rotate="-0.001">I</tspan><tspan x="12.454" y="0" font-family="'MyriadPro-Regular'" font-size="9">D</tspan></text>
<line fill="none" x1="310.331" y1="95.425" x2="396.573" y2="146.049"/>
<text transform="matrix(0.8624 0.5062 -0.5062 0.8624 312.0439 96.4312)"><tspan x="0" y="0" font-family="'MyriadPro-Regular'" font-size="9">K</tspan><tspan x="4.872" y="-0.001" font-family="'MyriadPro-Regular'" font-size="9">E</tspan><tspan x="9.312" y="0" font-family="'MyriadPro-Regular'" font-size="9" rotate="-0.001">E</tspan><tspan x="13.729" y="0" font-family="'MyriadPro-Regular'" font-size="9" rotate="-0.001">P</tspan></text>
<line fill="none" x1="347.76" y1="229.63" x2="391.495" y2="139.699"/>
<text transform="matrix(0.4374 -0.8993 0.8993 0.4374 348.6177 227.8657)"><tspan x="0" y="0" fill="#F2D029" font-family="'MyriadPro-Regular'" font-size="9">D</tspan><tspan x="6.021" y="0" fill="#F2D029" font-family="'MyriadPro-Regular'" font-size="9" rotate="-0.001">O</tspan><tspan x="12.21" y="0.001" fill="#F2D029" font-family="'MyriadPro-Regular'" font-size="9" rotate="-0.002">N</tspan><tspan x="18.132" y="-0.001" fill="#F2D029" font-family="'MyriadPro-Regular'" font-size="9" rotate="-0.001">A</tspan><tspan x="23.657" y="0" fill="#F2D029" font-family="'MyriadPro-Regular'" font-size="9" rotate="-0.002">T</tspan><tspan x="28.119" y="0" fill="#F2D029" font-family="'MyriadPro-Regular'" font-size="9" rotate="-0.001">E</tspan></text>
<line fill="none" x1="362.711" y1="237.03" x2="391.147" y2="141.155"/>
<text transform="matrix(0.2843 -0.9587 0.9587 0.2843 363.2734 235.1387)"><tspan x="0" y="0" font-family="'MyriadPro-Regular'" font-size="9">R</tspan><tspan x="4.864" y="0" font-family="'MyriadPro-Regular'" font-size="9" rotate="0">E</tspan><tspan x="9.285" y="0" font-family="'MyriadPro-Regular'" font-size="9" rotate="0.001">-</tspan><tspan x="12.03" y="0" font-family="'MyriadPro-Regular'" font-size="9" rotate="0">I</tspan><tspan x="14.199" y="0" font-family="'MyriadPro-Regular'" font-size="9" rotate="0.001">N</tspan><tspan x="20.108" y="0" font-family="'MyriadPro-Regular'" font-size="9">V</tspan><tspan x="25.142" y="0" font-family="'MyriadPro-Regular'" font-size="9" rotate="0.001">E</tspan><tspan x="29.577" y="0" font-family="'MyriadPro-Regular'" font-size="9" rotate="0.001">S</tspan><tspan x="34.025" y="0.001" font-family="'MyriadPro-Regular'" font-size="9">T</tspan></text>
<line fill="none" x1="447.326" y1="65.149" x2="393.026" y2="149.126"/>
<text transform="matrix(-0.543 0.8397 -0.8397 -0.543 446.2607 66.8018)"><tspan x="0" y="0" font-family="'MyriadPro-Regular'" font-size="9">P</tspan><tspan x="4.799" y="0.001" font-family="'MyriadPro-Regular'" font-size="9" rotate="-0.001">A</tspan><tspan x="10.299" y="0.001" font-family="'MyriadPro-Regular'" font-size="9" rotate="-0.001">Y</tspan><tspan x="15.188" y="0" font-family="'MyriadPro-Regular'" font-size="9" rotate="-0.001"> </tspan><tspan x="17.083" y="0.001" font-family="'MyriadPro-Regular'" font-size="9" rotate="-0.001">S</tspan><tspan x="21.533" y="0.001" font-family="'MyriadPro-Regular'" font-size="9" rotate="-0.001">T</tspan><tspan x="25.997" y="0.001" font-family="'MyriadPro-Regular'" font-size="9" rotate="-0.001">A</tspan><tspan x="31.52" y="0.001" font-family="'MyriadPro-Regular'" font-size="9" rotate="-0.001">F</tspan><tspan x="35.903" y="0" font-family="'MyriadPro-Regular'" font-size="9" rotate="-0.001">F</tspan></text>
<g>
	<path opacity="0.8" fill="#F57E20" stroke="#FFFFFF" stroke-width="7" stroke-miterlimit="10" d="M54.533,900.256l-54.578,83.178
		l-50.826-85.545l-0.004-0.006c32.125-19.087,73.213-18.819,105.412,2.367L54.533,900.256z"/>
	<path opacity="0.6" fill="#F57E20" stroke="#FFFFFF" stroke-width="7" stroke-miterlimit="10" d="M-0.045,983.434l-27.213,95.689
		l-0.007-0.001c8.678,2.472,17.839,3.795,27.31,3.795c54.943,0,99.484-44.541,99.484-99.484c0-34.815-17.885-65.455-44.968-83.231
		l-0.028,0.055L-0.045,983.434z"/>
	<path fill="#F57E20" stroke="#FFFFFF" stroke-width="7" stroke-miterlimit="10" d="M-0.048,983.434l-50.83-85.551l0.026,0.052
		c-14.591,8.704-26.767,21.038-35.28,35.755l0.002,0.001L-0.048,983.434z"/>
	<path opacity="0.4" fill="#F57E20" stroke="#FFFFFF" stroke-width="7" stroke-miterlimit="10" d="M-0.045,983.434l-43.042,89.716
		l-0.003-0.001c5.05,2.428,10.336,4.441,15.815,5.997l0.01-0.023L-0.045,983.434z"/>
	<path opacity="0.2" fill="#F57E20" stroke="#FFFFFF" stroke-width="7" stroke-miterlimit="10" d="M-43.087,1073.149l43.039-89.716
		l-86.084-49.744l-0.062-0.043c-8.481,14.644-13.336,31.648-13.336,49.787c0,39.524,23.049,73.665,56.439,89.715L-43.087,1073.149z"
		/>
	<rect x="-13.93" y="971.733" fill="none" width="44.299" height="28.789"/>
	<text transform="matrix(1 0 0 1 -13.9297 986.6426)" fill="#2B3990" font-family="'MyriadPro-Regular'" font-size="21">we</text>
	<line fill="none" x1="-46.093" y1="900.201" x2="2.958" y2="987.348"/>
	<text transform="matrix(0.4905 0.8714 -0.8714 0.4905 -45.1294 901.915)"><tspan x="0" y="0" font-family="'MyriadPro-Regular'" font-size="9">P</tspan><tspan x="4.798" y="0" font-family="'MyriadPro-Regular'" font-size="9">A</tspan><tspan x="10.314" y="0" font-family="'MyriadPro-Regular'" font-size="9" rotate="-0.001">I</tspan><tspan x="12.454" y="0" font-family="'MyriadPro-Regular'" font-size="9">D</tspan></text>
	<line fill="none" x1="-80.864" y1="933.646" x2="5.378" y2="984.271"/>
	<text transform="matrix(0.8624 0.5062 -0.5062 0.8624 -79.1509 934.6523)"><tspan x="0" y="0" font-family="'MyriadPro-Regular'" font-size="9">K</tspan><tspan x="4.872" y="0" font-family="'MyriadPro-Regular'" font-size="9">E</tspan><tspan x="9.312" y="0" font-family="'MyriadPro-Regular'" font-size="9" rotate="-0.001">E</tspan><tspan x="13.729" y="0" font-family="'MyriadPro-Regular'" font-size="9" rotate="-0.001">P</tspan></text>
	<line fill="none" x1="-43.435" y1="1067.852" x2="0.3" y2="977.92"/>
	<text transform="matrix(0.4374 -0.8993 0.8993 0.4374 -42.5771 1066.0859)"><tspan x="0" y="0" font-family="'MyriadPro-Regular'" font-size="9">D</tspan><tspan x="6.021" y="0.001" font-family="'MyriadPro-Regular'" font-size="9" rotate="-0.001">O</tspan><tspan x="12.21" y="0.001" font-family="'MyriadPro-Regular'" font-size="9" rotate="-0.002">N</tspan><tspan x="18.132" y="0" font-family="'MyriadPro-Regular'" font-size="9" rotate="-0.001">A</tspan><tspan x="23.657" y="0" font-family="'MyriadPro-Regular'" font-size="9" rotate="-0.002">T</tspan><tspan x="28.118" y="0" font-family="'MyriadPro-Regular'" font-size="9" rotate="-0.001">E</tspan></text>
	<line fill="none" x1="-28.483" y1="1075.251" x2="-0.048" y2="979.376"/>
	<text transform="matrix(0.2843 -0.9587 0.9587 0.2843 -27.9214 1073.3594)"><tspan x="0" y="0" font-family="'MyriadPro-Regular'" font-size="9">R</tspan><tspan x="4.865" y="0" font-family="'MyriadPro-Regular'" font-size="9" rotate="0">E</tspan><tspan x="9.285" y="0" font-family="'MyriadPro-Regular'" font-size="9" rotate="0.001">-</tspan><tspan x="12.03" y="0" font-family="'MyriadPro-Regular'" font-size="9" rotate="0">I</tspan><tspan x="14.199" y="0" font-family="'MyriadPro-Regular'" font-size="9" rotate="0.001">N</tspan><tspan x="20.107" y="0" font-family="'MyriadPro-Regular'" font-size="9">V</tspan><tspan x="25.141" y="0" font-family="'MyriadPro-Regular'" font-size="9" rotate="0.001">E</tspan><tspan x="29.576" y="0" font-family="'MyriadPro-Regular'" font-size="9" rotate="0.001">S</tspan><tspan x="34.026" y="0" font-family="'MyriadPro-Regular'" font-size="9">T</tspan></text>
	<line fill="none" x1="56.131" y1="903.37" x2="1.831" y2="987.348"/>
	<text transform="matrix(-0.543 0.8397 -0.8397 -0.543 55.0654 905.0234)"><tspan x="0" y="0" font-family="'MyriadPro-Regular'" font-size="9">P</tspan><tspan x="4.799" y="0.001" font-family="'MyriadPro-Regular'" font-size="9" rotate="-0.001">A</tspan><tspan x="10.299" y="0.001" font-family="'MyriadPro-Regular'" font-size="9" rotate="-0.001">Y</tspan><tspan x="15.188" y="0" font-family="'MyriadPro-Regular'" font-size="9" rotate="-0.001"> </tspan><tspan x="17.082" y="0.001" font-family="'MyriadPro-Regular'" font-size="9" rotate="-0.001">S</tspan><tspan x="21.532" y="0.001" font-family="'MyriadPro-Regular'" font-size="9" rotate="-0.001">T</tspan><tspan x="25.996" y="0.001" font-family="'MyriadPro-Regular'" font-size="9" rotate="-0.001">A</tspan><tspan x="31.519" y="0.001" font-family="'MyriadPro-Regular'" font-size="9" rotate="-0.001">F</tspan><tspan x="35.902" y="0.001" font-family="'MyriadPro-Regular'" font-size="9" rotate="-0.001">F</tspan></text>
</g>
<path fill="#3D499F" d="M237.379,294.173l-54.578,83.178l-50.826-85.545l-0.004-0.006c32.125-19.087,73.213-18.819,105.412,2.367
	L237.379,294.173z"/>
<path fill="#FBB98B" d="M182.801,377.351l-27.213,95.689l-0.007-0.001c8.678,2.472,17.839,3.795,27.31,3.795
	c54.943,0,99.484-44.541,99.484-99.484c0-34.815-17.885-65.455-44.968-83.231l-0.028,0.055L182.801,377.351z"/>
<path fill="#C41B7C" d="M182.798,377.351l-50.83-85.551l0.026,0.052c-14.591,8.704-26.767,21.038-35.28,35.755l0.002,0.001
	L182.798,377.351z"/>
<path fill="#7BAFA5" d="M182.801,377.351l-43.042,89.716l-0.003-0.001c5.05,2.428,10.336,4.441,15.815,5.997l0.01-0.023
	L182.801,377.351z"/>
<path fill="#DDA127" d="M139.759,467.066l43.039-89.716l-86.084-49.744l-0.062-0.043c-8.481,14.644-13.336,31.648-13.336,49.787
	c0,39.524,23.049,73.665,56.439,89.715L139.759,467.066z"/>
<rect x="378.25" y="361.357" fill="none" width="44.299" height="28.789"/>
<text transform="matrix(1 0 0 1 378.2495 376.415)" font-family="'BookmanOldStyle-Bold'" font-size="21">we</text>
<line fill="none" x1="346.086" y1="289.826" x2="395.137" y2="376.973"/>
<text transform="matrix(0.4905 0.8714 -0.8714 0.4905 347.0615 291.5591)"><tspan x="0" y="0" font-family="'BookmanOldStyle-Bold'" font-size="9">P</tspan><tspan x="5.95" y="0.001" font-family="'BookmanOldStyle-Bold'" font-size="9" rotate="-0.001">A</tspan><tspan x="12.418" y="0" font-family="'BookmanOldStyle-Bold'" font-size="9">I</tspan><tspan x="16.016" y="-0.001" font-family="'BookmanOldStyle-Bold'" font-size="9" rotate="0">D</tspan></text>
<line fill="none" x1="311.315" y1="323.271" x2="397.557" y2="373.895"/>
<text transform="matrix(0.8624 0.5062 -0.5062 0.8624 313.0322 324.2793)"><tspan x="0" y="0" font-family="'BookmanOldStyle-Bold'" font-size="9">K</tspan><tspan x="7.181" y="0" font-family="'BookmanOldStyle-Bold'" font-size="9">E</tspan><tspan x="13.665" y="0.001" font-family="'BookmanOldStyle-Bold'" font-size="9" rotate="0.001">E</tspan><tspan x="20.176" y="0" font-family="'BookmanOldStyle-Bold'" font-size="9" rotate="0.001">P</tspan></text>
<line fill="none" x1="348.744" y1="457.477" x2="392.479" y2="367.545"/>
<text transform="matrix(0.4373 -0.8993 0.8993 0.4373 349.6079 455.7012)"><tspan x="0" y="0" font-family="'BookmanOldStyle-Bold'" font-size="9">D</tspan><tspan x="7.041" y="0" font-family="'BookmanOldStyle-Bold'" font-size="9" rotate="-0.001">O</tspan><tspan x="14.217" y="-0.001" font-family="'BookmanOldStyle-Bold'" font-size="9" rotate="-0.001">N</tspan><tspan x="20.895" y="0" font-family="'BookmanOldStyle-Bold'" font-size="9" rotate="0">A</tspan><tspan x="27.378" y="0" font-family="'BookmanOldStyle-Bold'" font-size="9" rotate="-0.001">T</tspan><tspan x="33.681" y="-0.001" font-family="'BookmanOldStyle-Bold'" font-size="9" rotate="-0.001">E</tspan></text>
<line fill="none" x1="363.695" y1="464.875" x2="392.131" y2="369"/>
<text transform="matrix(0.2843 -0.9587 0.9587 0.2843 364.2588 462.9834)"><tspan x="0" y="0" font-family="'BookmanOldStyle-Bold'" font-size="9">R</tspan><tspan x="7.022" y="-0.001" font-family="'BookmanOldStyle-Bold'" font-size="9">E</tspan><tspan x="13.512" y="-0.001" font-family="'BookmanOldStyle-Bold'" font-size="9">-</tspan><tspan x="16.765" y="-0.001" font-family="'BookmanOldStyle-Bold'" font-size="9" rotate="0.001">I</tspan><tspan x="20.354" y="-0.001" font-family="'BookmanOldStyle-Bold'" font-size="9" rotate="0">N</tspan><tspan x="27.01" y="0" font-family="'BookmanOldStyle-Bold'" font-size="9" rotate="0">V</tspan><tspan x="33.484" y="0" font-family="'BookmanOldStyle-Bold'" font-size="9">E</tspan><tspan x="39.975" y="0" font-family="'BookmanOldStyle-Bold'" font-size="9">S</tspan><tspan x="45.938" y="0" font-family="'BookmanOldStyle-Bold'" font-size="9" rotate="0">T</tspan></text>
<line fill="none" x1="448.311" y1="292.995" x2="394.01" y2="376.973"/>
<text transform="matrix(-0.543 0.8398 -0.8398 -0.543 447.2324 294.6655)"><tspan x="0" y="0" font-family="'BookmanOldStyle-Bold'" font-size="9">P</tspan><tspan x="5.949" y="0" font-family="'BookmanOldStyle-Bold'" font-size="9">A</tspan><tspan x="12.421" y="0" font-family="'BookmanOldStyle-Bold'" font-size="9">Y</tspan><tspan x="18.737" y="0" font-family="'BookmanOldStyle-Bold'" font-size="9"> </tspan><tspan x="21.774" y="0" font-family="'BookmanOldStyle-Bold'" font-size="9">S</tspan><tspan x="27.744" y="0.001" font-family="'BookmanOldStyle-Bold'" font-size="9">T</tspan><tspan x="34.041" y="0" font-family="'BookmanOldStyle-Bold'" font-size="9" rotate="0">A</tspan><tspan x="40.526" y="0" font-family="'BookmanOldStyle-Bold'" font-size="9">F</tspan><tspan x="46.636" y="-0.001" font-family="'BookmanOldStyle-Bold'" font-size="9">F</tspan></text>
<line fill="none" x1="173.419" y1="291.41" x2="222.47" y2="378.557"/>
<text transform="matrix(0.4905 0.8714 -0.8714 0.4905 174.3945 293.1436)"><tspan x="0" y="0" font-family="'BookmanOldStyle-Bold'" font-size="9">P</tspan><tspan x="5.95" y="0.001" font-family="'BookmanOldStyle-Bold'" font-size="9" rotate="-0.001">A</tspan><tspan x="12.419" y="0" font-family="'BookmanOldStyle-Bold'" font-size="9">I</tspan><tspan x="16.016" y="0" font-family="'BookmanOldStyle-Bold'" font-size="9" rotate="0">D</tspan></text>
<line fill="none" x1="117.173" y1="323.271" x2="203.415" y2="373.895"/>
<text transform="matrix(0.8624 0.5062 -0.5062 0.8624 118.8906 324.2793)"><tspan x="0" y="0" font-family="'BookmanOldStyle-Bold'" font-size="9">K</tspan><tspan x="7.181" y="0" font-family="'BookmanOldStyle-Bold'" font-size="9">E</tspan><tspan x="13.665" y="0.001" font-family="'BookmanOldStyle-Bold'" font-size="9" rotate="0.001">E</tspan><tspan x="20.176" y="0" font-family="'BookmanOldStyle-Bold'" font-size="9" rotate="0.001">P</tspan></text>
<line fill="none" x1="103.442" y1="387.884" x2="203.416" y2="385.476"/>
<text transform="matrix(0.9997 -0.0241 0.0241 0.9997 105.4155 387.8359)"><tspan x="0" y="0" font-family="'BookmanOldStyle-Bold'" font-size="9">D</tspan><tspan x="7.041" y="0" font-family="'BookmanOldStyle-Bold'" font-size="9">O</tspan><tspan x="14.217" y="0.001" font-family="'BookmanOldStyle-Bold'" font-size="9">N</tspan><tspan x="20.896" y="0" font-family="'BookmanOldStyle-Bold'" font-size="9">A</tspan><tspan x="27.378" y="0" font-family="'BookmanOldStyle-Bold'" font-size="9" rotate="0.001">T</tspan><tspan x="33.682" y="0.001" font-family="'BookmanOldStyle-Bold'" font-size="9">E</tspan></text>
<line fill="none" x1="192.503" y1="389.794" x2="292.436" y2="385.974"/>
<text transform="matrix(0.9993 -0.0382 0.0382 0.9993 194.4902 389.7168)"><tspan x="0" y="0" font-family="'BookmanOldStyle-Bold'" font-size="9">P</tspan><tspan x="5.951" y="0.001" font-family="'BookmanOldStyle-Bold'" font-size="9" rotate="0.001">A</tspan><tspan x="12.423" y="0.001" font-family="'BookmanOldStyle-Bold'" font-size="9" rotate="0.001">Y</tspan><tspan x="18.738" y="0.001" font-family="'BookmanOldStyle-Bold'" font-size="9" rotate="0"> </tspan><tspan x="21.775" y="0.001" font-family="'BookmanOldStyle-Bold'" font-size="9" rotate="0.001">S</tspan><tspan x="27.744" y="0.001" font-family="'BookmanOldStyle-Bold'" font-size="9" rotate="0.001">T</tspan><tspan x="34.043" y="0.001" font-family="'BookmanOldStyle-Bold'" font-size="9" rotate="0.001">A</tspan><tspan x="40.528" y="0.001" font-family="'BookmanOldStyle-Bold'" font-size="9" rotate="0.001">F</tspan><tspan x="46.638" y="0.001" font-family="'BookmanOldStyle-Bold'" font-size="9" rotate="0.001">F</tspan></text>
<line fill="none" x1="153.429" y1="469.77" x2="181.864" y2="373.895"/>
<text transform="matrix(0.2843 -0.9587 0.9587 0.2843 153.9922 467.8779)"><tspan x="0" y="0" font-family="'BookmanOldStyle-Bold'" font-size="9">R</tspan><tspan x="7.022" y="-0.001" font-family="'BookmanOldStyle-Bold'" font-size="9">E</tspan><tspan x="13.512" y="-0.001" font-family="'BookmanOldStyle-Bold'" font-size="9">-</tspan><tspan x="16.765" y="-0.001" font-family="'BookmanOldStyle-Bold'" font-size="9" rotate="0.001">I</tspan><tspan x="20.354" y="-0.001" font-family="'BookmanOldStyle-Bold'" font-size="9" rotate="0">N</tspan><tspan x="27.01" y="0" font-family="'BookmanOldStyle-Bold'" font-size="9" rotate="0">V</tspan><tspan x="33.484" y="0" font-family="'BookmanOldStyle-Bold'" font-size="9">E</tspan><tspan x="39.975" y="0" font-family="'BookmanOldStyle-Bold'" font-size="9">S</tspan><tspan x="45.938" y="0" font-family="'BookmanOldStyle-Bold'" font-size="9" rotate="0">T</tspan></text>
<path fill="#3D499F" d="M707.041,363.884l-54.578,83.178l-50.826-85.545l-0.004-0.006c32.125-19.087,73.213-18.819,105.412,2.367
	L707.041,363.884z"/>
<path fill="#F48CA6" d="M652.463,447.062l-27.213,95.689l-0.007-0.001c8.678,2.472,17.839,3.795,27.31,3.795
	c54.943,0,99.484-44.541,99.484-99.484c0-34.815-17.885-65.455-44.968-83.231l-0.028,0.055L652.463,447.062z"/>
<path fill="#C41B7C" d="M652.46,447.062l-50.83-85.551l0.026,0.052c-14.591,8.704-26.767,21.038-35.28,35.755l0.002,0.001
	L652.46,447.062z"/>
<path fill="#7BAFA5" d="M652.463,447.062l-43.042,89.716l-0.003-0.001c5.05,2.428,10.336,4.441,15.815,5.997l0.01-0.023
	L652.463,447.062z"/>
<path fill="#DDA127" d="M609.421,536.777l43.039-89.716l-86.084-49.744l-0.062-0.043c-8.481,14.644-13.336,31.648-13.336,49.787
	c0,39.524,23.049,73.665,56.439,89.715L609.421,536.777z"/>
</svg>
